REM DIRINDEX 1\2\6,1\2\7,1\2\8,1\2\9,1\3\10,1\3\11,1\4\12,1\4\13,1\4\14,1\5\15,1\5\16,1\5\17
REM DIRNAME cjc029,folder01,folder02,folder03,folder04,folder05,folder06,folder07,folder08,folder09,folder10,folder11,folder12,folder13,folder14,folder15,folder16
TITLE ""
FILE "1400_3_sec13_1284_1300.mp3" MP3
  TRACK 01 AUDIO
    TITLE "0:"
    INDEX 01 00:00:00
  TRACK 02 AUDIO
    TITLE "17:cjc029_7008"
    INDEX 01 00:00:15
  TRACK 03 AUDIO
    TITLE "0:"
    INDEX 01 00:01:28
  TRACK 04 AUDIO
    TITLE "16:cjc029_7009"
    INDEX 01 00:01:34
  TRACK 05 AUDIO
    TITLE "0:"
    INDEX 01 00:02:49
  TRACK 06 AUDIO
    TITLE "17:cjc029_7010"
    INDEX 01 00:03:33
  TRACK 07 AUDIO
    TITLE "0:"
    INDEX 01 00:04:31
  TRACK 08 AUDIO
    TITLE "16:cjc029_7011"
    INDEX 01 00:04:38
  TRACK 09 AUDIO
    TITLE "0:"
    INDEX 01 00:05:38
  TRACK 10 AUDIO
    TITLE "17:cjc029_7012"
    INDEX 01 00:06:24
  TRACK 11 AUDIO
    TITLE "0:"
    INDEX 01 00:07:74
  TRACK 12 AUDIO
    TITLE "16:cjc029_7013"
    INDEX 01 00:08:07
  TRACK 13 AUDIO
    TITLE "0:"
    INDEX 01 00:09:10
  TRACK 14 AUDIO
    TITLE "17:cjc029_7014"
    INDEX 01 00:09:69
  TRACK 15 AUDIO
    TITLE "0:"
    INDEX 01 00:11:33
  TRACK 16 AUDIO
    TITLE "16:cjc029_7015"
    INDEX 01 00:11:39
  TRACK 17 AUDIO
    TITLE "0:"
    INDEX 01 00:12:48
  TRACK 18 AUDIO
    TITLE "17:cjc029_7016"
    INDEX 01 00:13:33
  TRACK 19 AUDIO
    TITLE "0:"
    INDEX 01 00:14:70
  TRACK 20 AUDIO
    TITLE "16:cjc029_7017"
    INDEX 01 00:15:09
  TRACK 21 AUDIO
    TITLE "0:"
    INDEX 01 00:16:06
  TRACK 22 AUDIO
    TITLE "17:cjc029_7018"
    INDEX 01 00:16:65
  TRACK 23 AUDIO
    TITLE "0:"
    INDEX 01 00:20:69
  TRACK 24 AUDIO
    TITLE "16:cjc029_7019"
    INDEX 01 00:21:00
  TRACK 25 AUDIO
    TITLE "0:"
    INDEX 01 00:22:03
  TRACK 26 AUDIO
    TITLE "17:cjc029_7020"
    INDEX 01 00:22:62
  TRACK 27 AUDIO
    TITLE "0:"
    INDEX 01 00:24:14
  TRACK 28 AUDIO
    TITLE "16:cjc029_7021"
    INDEX 01 00:24:22
  TRACK 29 AUDIO
    TITLE "0:"
    INDEX 01 00:25:29
  TRACK 30 AUDIO
    TITLE "17:cjc029_7022"
    INDEX 01 00:26:15
  TRACK 31 AUDIO
    TITLE "0:"
    INDEX 01 00:27:39
  TRACK 32 AUDIO
    TITLE "16:cjc029_7023"
    INDEX 01 00:27:47
  TRACK 33 AUDIO
    TITLE "0:"
    INDEX 01 00:28:68
  TRACK 34 AUDIO
    TITLE "17:cjc029_7024"
    INDEX 01 00:29:54
  TRACK 35 AUDIO
    TITLE "0:"
    INDEX 01 00:31:08
  TRACK 36 AUDIO
    TITLE "16:cjc029_7025"
    INDEX 01 00:31:16
  TRACK 37 AUDIO
    TITLE "0:"
    INDEX 01 00:32:15
  TRACK 38 AUDIO
    TITLE "17:cjc029_7026"
    INDEX 01 00:32:74
  TRACK 39 AUDIO
    TITLE "0:"
    INDEX 01 00:36:44
  TRACK 40 AUDIO
    TITLE "16:cjc029_7027"
    INDEX 01 00:36:48
  TRACK 41 AUDIO
    TITLE "0:"
    INDEX 01 00:38:20
  TRACK 42 AUDIO
    TITLE "17:cjc029_7028"
    INDEX 01 00:39:05
  TRACK 43 AUDIO
    TITLE "0:"
    INDEX 01 00:41:45
  TRACK 44 AUDIO
    TITLE "16:cjc029_7029"
    INDEX 01 00:41:51
  TRACK 45 AUDIO
    TITLE "0:"
    INDEX 01 00:42:72
  TRACK 46 AUDIO
    TITLE "17:cjc029_7030"
    INDEX 01 00:43:56
  TRACK 47 AUDIO
    TITLE "0:"
    INDEX 01 00:46:19
  TRACK 48 AUDIO
    TITLE "16:cjc029_7031"
    INDEX 01 00:46:31
  TRACK 49 AUDIO
    TITLE "0:"
    INDEX 01 00:47:28
  TRACK 50 AUDIO
    TITLE "17:cjc029_7032"
    INDEX 01 00:48:12
  TRACK 51 AUDIO
    TITLE "0:"
    INDEX 01 00:50:74
  TRACK 52 AUDIO
    TITLE "16:cjc029_7033"
    INDEX 01 00:51:09
  TRACK 53 AUDIO
    TITLE "0:"
    INDEX 01 00:52:14
  TRACK 54 AUDIO
    TITLE "17:cjc029_7034"
    INDEX 01 00:52:73
  TRACK 55 AUDIO
    TITLE "0:"
    INDEX 01 00:54:09
  TRACK 56 AUDIO
    TITLE "16:cjc029_7035"
    INDEX 01 00:54:15
  TRACK 57 AUDIO
    TITLE "0:"
    INDEX 01 00:55:36
  TRACK 58 AUDIO
    TITLE "17:cjc029_7036"
    INDEX 01 00:56:20
  TRACK 59 AUDIO
    TITLE "0:"
    INDEX 01 00:57:52
  TRACK 60 AUDIO
    TITLE "16:cjc029_7037"
    INDEX 01 00:57:54
  TRACK 61 AUDIO
    TITLE "0:"
    INDEX 01 00:58:62
  TRACK 62 AUDIO
    TITLE "17:cjc029_7038"
    INDEX 01 00:59:47
  TRACK 63 AUDIO
    TITLE "0:"
    INDEX 01 01:00:72
  TRACK 64 AUDIO
    TITLE "16:cjc029_7039"
    INDEX 01 01:01:03
  TRACK 65 AUDIO
    TITLE "0:"
    INDEX 01 01:02:18
  TRACK 66 AUDIO
    TITLE "17:cjc029_7040"
    INDEX 01 01:03:04
  TRACK 67 AUDIO
    TITLE "0:"
    INDEX 01 01:04:27
  TRACK 68 AUDIO
    TITLE "16:cjc029_7041"
    INDEX 01 01:04:33
  TRACK 69 AUDIO
    TITLE "0:"
    INDEX 01 01:05:38
